<svg width="15" height="14" viewBox="0 0 15 14" fill="none" xmlns="http://www.w3.org/2000/svg">
<path d="M6.5669 1.536C6.75357 1.04366 7.45999 1.04366 7.64724 1.536L8.85474 4.88083C8.89686 4.98979 8.97104 5.08341 9.06748 5.14934C9.16392 5.21526 9.27808 5.25039 9.3949 5.25008H12.3623C12.9107 5.25008 13.1498 5.93258 12.7187 6.26683L10.6071 8.16675C10.5125 8.23946 10.4434 8.34027 10.4096 8.45471C10.3759 8.56915 10.3792 8.69134 10.4192 8.80375L11.1904 12.0722C11.3782 12.5972 10.7704 13.0481 10.3107 12.7249L7.44249 10.9049C7.34426 10.8359 7.22713 10.7988 7.10707 10.7988C6.98701 10.7988 6.86988 10.8359 6.77165 10.9049L3.9034 12.7249C3.44432 13.0481 2.8359 12.5966 3.02374 12.0722L3.7949 8.80375C3.83491 8.69134 3.83828 8.56915 3.80453 8.45471C3.77079 8.34027 3.70166 8.23946 3.60707 8.16675L1.4954 6.26683C1.06374 5.93258 1.30407 5.25008 1.85124 5.25008H4.81865C4.93549 5.25047 5.04969 5.21537 5.14615 5.14944C5.2426 5.0835 5.31676 4.98984 5.35882 4.88083L6.56632 1.536H6.5669Z" fill="#FFD057" stroke="#FFD057" stroke-linecap="round" stroke-linejoin="round"/>
</svg>
